first trial
nRows=26
nColumns=38

# SIMM Motion File Header:
name Sujet_08_velo_80.mvnx
datacolumns 38
datarows 26
otherdata 1
range 0.0000 0.4170
endheader
time pelvis_tilt  pelvis_list  pelvis_rotation  pelvis_tx  pelvis_ty  pelvis_tz  hip_flexion_r  hip_adduction_r  hip_rotation_r  knee_angle_r  ankle_angle_r  subtalar_angle_r  mtp_angle_r  hip_flexion_l  hip_adduction_l  hip_rotation_l  knee_angle_l  ankle_angle_l  subtalar_angle_l  mtp_angle_l  lumbar_extension  lumbar_bending  lumbar_rotation  arm_flex_r  arm_add_r  arm_rot_r  elbow_flex_r  pro_sup_r  wrist_flex_r  wrist_dev_r  arm_flex_l  arm_add_l  arm_rot_l  elbow_flex_l  pro_sup_l  wrist_flex_l  wrist_dev_l
0.0000	-24.0897	3.8130	41.9812	0.0000	1.2500	-0.0000	91.5872	-3.6867	2.0022	108.0750	-7.2987	11.0032	-0.0000	57.0945	-1.0244	-12.2822	36.0505	-17.6009	3.8446	-0.0000	-13.4251	-1.3332	2.6660	82.4153	-9.9946	28.6705	-5.4785	83.0477	-28.5785	-20.7292	85.7727	-4.2997	24.4766	-7.0282	59.5107	-24.3853	-21.8225	
0.0170	-23.7346	3.7099	42.0775	0.0000	1.2500	-0.0000	92.9795	-3.1438	1.4322	107.9253	-6.8802	11.4092	0.0000	54.8069	-0.4934	-13.0181	35.2647	-17.2074	3.7751	-0.0000	-13.5567	-1.1005	2.6008	82.0909	-9.8618	28.6918	-5.4008	83.2279	-28.6017	-20.6487	85.5005	-4.2862	24.3750	-7.1479	59.2457	-24.3791	-21.8672	
0.0340	-23.3798	3.6066	42.1742	0.0000	1.2500	-0.0000	94.3788	-2.6218	0.8491	107.8080	-6.4740	11.7563	0.0000	52.5245	0.0549	-13.7353	34.4457	-16.8199	3.7168	-0.0000	-13.6879	-0.8679	2.5351	81.7659	-9.7307	28.7133	-5.3228	83.4084	-28.6249	-20.5681	85.2285	-4.2712	24.2736	-7.2677	58.9807	-24.3730	-21.9121	
0.0500	-23.1188	3.4882	42.2690	0.0000	1.2500	-0.0000	95.6192	-2.1917	0.5930	107.1977	-6.2051	11.7577	0.0000	50.9142	0.4325	-14.1406	34.5657	-16.4210	3.6904	-0.0000	-13.7955	-0.6748	2.4840	81.4838	-9.6309	28.7469	-5.2765	83.4823	-28.6735	-20.5083	84.9975	-4.2718	24.2560	-7.2916	58.7518	-24.3471	-21.9249	
0.0670	-23.0173	3.3288	42.3621	0.0000	1.2500	-0.0000	96.7798	-1.8718	1.0077	105.8956	-6.1581	11.2219	-0.0000	50.2456	0.5081	-14.0930	36.0731	-15.9291	3.6311	-0.0000	-13.8667	-0.5309	2.4624	81.2849	-9.5895	28.7923	-5.2828	83.4045	-28.7745	-20.4804	84.8423	-4.2971	24.3709	-7.1385	58.5718	-24.2775	-21.8846	
0.0840	-23.0097	3.1547	42.4527	0.0000	1.2500	-0.0000	97.7704	-1.6128	1.7590	104.0768	-6.2249	10.3895	-0.0000	50.2447	0.3963	-13.7524	38.5608	-15.4135	3.5755	-0.0000	-13.9145	-0.4263	2.4563	81.1295	-9.5778	28.8496	-5.3214	83.2197	-28.9010	-20.4731	84.7283	-4.3402	24.5694	-6.8895	58.4280	-24.1882	-21.8125	
0.1000	-22.9929	3.0300	42.5367	0.0000	1.2500	-0.0000	98.1729	-1.3905	2.1732	101.7452	-6.2436	9.6395	-0.0000	50.7587	0.2693	-13.2857	41.7472	-15.0847	3.7022	0.0000	-13.9545	-0.3704	2.4371	80.9417	-9.5412	28.9317	-5.3620	82.9554	-28.9977	-20.4730	84.5923	-4.3947	24.7893	-6.6916	58.3195	-24.1314	-21.7399	
0.1170	-22.9335	2.9763	42.6006	0.0000	1.2500	-0.0000	97.8210	-1.1595	2.0104	98.8509	-6.1181	9.0956	-0.0000	51.8329	0.1885	-12.7333	45.7118	-15.0878	4.1517	0.0000	-13.9926	-0.3769	2.3898	80.7004	-9.4440	29.0537	-5.4277	82.5922	-29.0327	-20.4817	84.4065	-4.4733	25.0389	-6.5961	58.2322	-24.1355	-21.6787	
0.1340	-22.8644	2.9721	42.6577	0.0000	1.2500	-0.0000	96.8874	-0.9670	1.5152	95.4388	-5.9731	8.6700	0.0000	53.4228	0.1138	-12.0532	50.3926	-15.2698	4.7808	-0.0000	-14.0230	-0.4321	2.3292	80.4276	-9.3207	29.2019	-5.4951	82.1500	-29.0379	-20.4974	84.1984	-4.5630	25.3093	-6.5520	58.1806	-24.1719	-21.6166	
0.1500	-22.7818	3.0156	42.7431	0.0000	1.2500	-0.0000	95.4653	-0.9346	0.7362	91.6388	-5.9650	8.3908	-0.0000	55.2384	0.0604	-11.2913	55.2947	-15.4058	5.3637	-0.0000	-14.0440	-0.5039	2.2711	80.1120	-9.2213	29.3457	-5.4635	81.7146	-29.0542	-20.5014	83.9871	-4.6186	25.5129	-6.5536	58.2066	-24.2066	-21.5484	
0.1670	-22.6717	3.1401	42.8704	0.0000	1.2500	-0.0000	93.5055	-1.0912	-0.4774	87.4094	-6.0066	8.2603	-0.0000	57.2018	0.0616	-10.4887	60.3447	-15.4528	5.8211	-0.0000	-14.0513	-0.5990	2.2194	79.7019	-9.1533	29.4627	-5.2496	81.3053	-29.0946	-20.4778	83.7418	-4.6226	25.5665	-6.6402	58.3739	-24.2319	-21.4645	
0.1840	-22.5476	3.3119	43.0256	0.0000	1.2500	-0.0000	91.0511	-1.3593	-1.9952	82.7709	-6.1674	8.2439	-0.0000	59.3924	0.0980	-9.6133	65.5954	-15.4586	6.2334	-0.0000	-14.0494	-0.7108	2.1703	79.2489	-9.1088	29.5760	-4.9362	80.9017	-29.1462	-20.4423	83.4934	-4.5938	25.5532	-6.7707	58.6188	-24.2554	-21.3744	
0.2000	-22.4471	3.4297	43.2022	0.0000	1.2500	-0.0000	88.3313	-1.7221	-3.3541	77.9590	-6.8244	8.3029	0.0000	61.7577	0.1073	-8.5961	70.7298	-15.3426	6.6265	-0.0000	-14.0486	-0.7878	2.1286	78.8948	-9.1173	29.7212	-4.6726	80.5304	-29.2106	-20.4234	83.3538	-4.5393	25.6353	-6.8211	58.7922	-24.2655	-21.3027	
0.2170	-22.3877	3.4382	43.3835	0.0000	1.2500	-0.0000	85.3932	-2.2132	-4.3320	73.0014	-8.2898	8.4515	0.0000	64.3035	0.0538	-7.3270	75.6915	-15.0552	7.1084	0.0000	-14.0576	-0.7994	2.1012	78.6840	-9.1848	29.9506	-4.5047	80.1945	-29.2976	-20.4219	83.3947	-4.4646	25.9123	-6.7112	58.7892	-24.2475	-21.2615	
0.2340	-22.3526	3.3929	43.5868	0.0000	1.2500	-0.0000	82.1826	-2.8030	-5.1795	67.9059	-10.2420	8.6435	0.0000	67.0269	0.0162	-5.9087	80.5241	-14.6505	7.5867	0.0000	-14.0674	-0.7761	2.0809	78.5718	-9.3075	30.2102	-4.3877	79.8918	-29.3971	-20.4372	83.5442	-4.3623	26.2851	-6.5224	58.7137	-24.2162	-21.2391	
0.2500	-22.3281	3.3588	43.8579	0.0000	1.2500	-0.0000	78.7789	-3.3967	-6.1377	62.8895	-12.1211	8.7863	0.0000	69.8595	0.0921	-4.5959	85.0695	-14.2082	7.7911	0.0000	-14.0618	-0.7580	2.0507	78.5668	-9.5003	30.3748	-4.3347	79.6425	-29.4805	-20.4956	83.6970	-4.2186	26.6193	-6.3757	58.7301	-24.2043	-21.2237	
0.2670	-22.3182	3.3605	44.2237	0.0000	1.2500	-0.0000	75.1215	-3.9506	-7.3474	57.8931	-13.7985	8.8675	-0.0000	72.8198	0.2995	-3.4495	89.3555	-13.7962	7.5314	0.0000	-14.0335	-0.7633	2.0048	78.7012	-9.7817	30.3815	-4.3570	79.4591	-29.5409	-20.6129	83.8477	-4.0354	26.8607	-6.3121	58.9296	-24.2289	-21.2148	
0.2840	-22.3187	3.3737	44.6577	0.0000	1.2500	-0.0000	71.2689	-4.4603	-8.6884	52.9666	-15.4128	8.9259	-0.0000	75.8862	0.6126	-2.4355	93.3642	-13.3544	7.0007	0.0000	-13.9901	-0.7740	1.9488	78.9402	-10.1338	30.2927	-4.4424	79.3296	-29.5851	-20.7738	83.9998	-3.8100	27.0634	-6.2917	59.2212	-24.2728	-21.2125	
0.3000	-22.3043	3.3887	45.1245	0.0000	1.2500	-0.0000	67.4834	-4.9018	-9.9942	48.4754	-16.8190	8.9865	0.0000	78.9270	1.0251	-1.6725	96.8770	-12.7695	6.5012	0.0000	-13.9378	-0.7764	1.8832	79.1926	-10.5175	30.1721	-4.5689	79.2379	-29.6044	-20.9591	84.0606	-3.5220	27.2553	-6.3146	59.4957	-24.3163	-21.2051	
0.3170	-22.2592	3.4015	45.6408	0.0000	1.2500	-0.0000	63.7144	-5.3052	-11.2436	44.3821	-17.9603	9.0970	0.0000	81.9518	1.5285	-1.2459	99.8850	-11.9005	6.1224	-0.0000	-13.8752	-0.7616	1.8060	79.4720	-10.9524	30.0641	-4.7752	79.1787	-29.5904	-21.1917	83.9952	-3.1295	27.4375	-6.4109	59.7183	-24.3535	-21.1931	
0.3340	-22.1993	3.4159	46.1899	0.0000	1.2500	-0.0000	60.0140	-5.6501	-12.4540	40.7194	-18.8970	9.2306	0.0000	84.9507	2.0889	-1.0873	102.4040	-10.8850	5.7824	0.0000	-13.8036	-0.7388	1.7189	79.7635	-11.4195	29.9248	-5.0221	79.1581	-29.5518	-21.4484	83.8371	-2.6763	27.6090	-6.5500	59.9231	-24.3905	-21.1760	
0.3500	-22.1467	3.4352	46.6880	0.0000	1.2500	-0.0000	56.8033	-5.9016	-13.4895	37.9622	-19.6570	9.2881	-0.0000	87.7637	2.6538	-1.0652	104.2528	-10.0254	5.5237	0.0000	-13.7330	-0.7209	1.6283	79.9343	-11.8191	29.6845	-5.1709	79.1748	-29.5062	-21.6417	83.5979	-2.2715	27.7939	-6.6401	60.1047	-24.4260	-21.1416	
0.3670	-22.1018	3.4474	47.1177	0.0000	1.2500	-0.0000	54.1752	-6.0896	-14.2933	36.2462	-20.2307	9.2077	0.0000	90.4106	3.2193	-1.2257	105.3503	-9.4457	5.4287	0.0000	-13.6576	-0.7054	1.5356	79.8457	-12.1069	29.2334	-5.1401	79.2567	-29.4607	-21.7251	83.2208	-1.9365	28.0173	-6.6407	60.2636	-24.4570	-21.0746	
0.3840	-22.0642	3.4653	47.4968	0.0000	1.2500	-0.0000	52.0397	-6.2561	-14.8958	35.4354	-20.6228	9.0378	-0.0000	92.8739	3.7637	-1.5056	105.7756	-9.0216	5.4185	0.0000	-13.5833	-0.6947	1.4395	79.6364	-12.3225	28.6801	-5.0119	79.3749	-29.4080	-21.7449	82.7639	-1.6520	28.2552	-6.5920	60.4000	-24.4864	-20.9903	
0.4000	-22.0539	3.5305	47.7931	0.0000	1.2500	-0.0000	50.5457	-6.4184	-15.2797	35.5973	-20.8813	8.8375	-0.0000	94.9367	4.2329	-1.5848	105.5897	-8.6840	5.2738	-0.0000	-13.5377	-0.7083	1.3430	79.5922	-12.4951	28.2824	-4.8932	79.4423	-29.3438	-21.7535	82.4133	-1.4630	28.4570	-6.5236	60.5084	-24.5224	-20.9225	
0.4170	-22.0970	3.6829	47.9796	0.0000	1.2500	-0.0000	49.8032	-6.6027	-15.4381	36.8369	-21.0098	8.5734	0.0000	96.6002	4.6206	-1.2340	104.8072	-8.4147	4.7905	0.0000	-13.5353	-0.7693	1.2438	79.8885	-12.6451	28.1697	-4.8039	79.4131	-29.2523	-21.7665	82.2540	-1.4081	28.5865	-6.4242	60.6239	-24.5772	-20.8877	
